<?xml version="1.0" standalone="no"?>
<!DOCTYPE svg PUBLIC "-//W3C//DTD SVG 20010904//EN"
 "http://www.w3.org/TR/2001/REC-SVG-20010904/DTD/svg10.dtd">
<svg version="1.0" xmlns="http://www.w3.org/2000/svg"
 width="172.000000pt" height="172.000000pt" viewBox="0 0 172.000000 172.000000"
 preserveAspectRatio="xMidYMid meet">
<metadata>
Created by potrace 1.11, written by Peter Selinger 2001-2013
</metadata>
<g transform="translate(0.000000,172.000000) scale(0.100000,-0.100000)"
fill="#000000" stroke="none">
<path d="M1205 1645 c-56 -17 -97 -39 -200 -109 -102 -70 -138 -88 -160 -80
-17 7 -18 13 -16 69 l2 40 -23 -31 c-24 -32 -42 -49 -158 -146 -36 -30 -78
-76 -95 -103 -27 -44 -30 -57 -32 -144 -1 -53 4 -125 12 -161 8 -36 14 -70 15
-76 0 -8 -30 -12 -87 -13 -165 -3 -214 -16 -227 -63 -9 -35 7 -607 19 -688 9
-59 15 -68 43 -74 32 -6 381 0 388 7 2 2 6 25 7 51 l2 47 -172 -1 c-160 -1
-173 1 -174 17 -1 10 -2 148 -3 307 -1 231 1 292 12 302 9 10 42 14 107 14 84
0 96 -2 115 -22 28 -30 25 -35 -17 -35 -86 -1 -103 -4 -131 -28 -73 -62 -88
-314 -25 -437 22 -45 57 -61 128 -61 91 1 102 7 107 54 5 54 -1 61 -49 53 -24
-3 -49 -1 -61 5 -26 14 -43 73 -44 155 -2 117 21 156 90 156 28 0 35 -5 44
-30 10 -30 44 -48 72 -37 15 6 19 -84 18 -385 0 -112 2 -128 16 -129 20 -2 92
-2 108 0 8 1 11 37 9 116 -1 63 1 115 4 116 3 1 29 2 56 4 28 1 53 3 58 4 12
2 5 110 -7 114 -6 2 -32 3 -58 2 -27 -1 -49 1 -49 4 -8 40 -6 71 3 78 7 4 33
8 58 9 25 1 51 2 58 3 7 1 12 15 12 35 0 25 6 38 24 50 14 9 27 12 29 8 2 -4
3 -85 3 -179 -1 -95 2 -182 6 -192 6 -16 16 -19 57 -18 39 1 51 5 52 16 0 9 0
50 0 91 l0 75 29 -65 c54 -117 52 -115 111 -113 28 1 54 4 56 7 4 4 -12 45
-73 182 -3 6 6 16 20 22 31 14 46 64 45 147 0 76 -17 123 -51 148 -22 17 -42
20 -124 19 -96 0 -97 0 -78 19 29 28 67 35 182 34 76 -1 107 -5 118 -17 19
-19 24 -86 26 -338 1 -232 -4 -268 -35 -275 -12 -3 -126 -4 -254 -2 -128 2
-238 0 -245 -4 -15 -9 -19 -79 -6 -96 12 -15 584 -18 606 -4 21 13 29 142 28
466 -1 219 -4 306 -13 322 -16 27 -44 33 -170 35 l-102 1 27 51 c15 28 38 76
50 106 34 82 78 145 117 166 19 10 35 22 35 27 0 11 -39 24 -96 32 -55 8 -94
28 -94 49 0 16 50 36 92 36 23 0 44 16 102 75 40 41 68 76 62 76 -25 3 -54 -3
-121 -23 -125 -36 -145 -33 -145 24 0 35 28 62 104 102 35 18 52 32 45 37 -19
11 -150 8 -194 -6z m-137 -294 c108 -29 192 -137 192 -246 0 -91 -69 -248
-122 -276 -64 -33 -97 -70 -114 -127 -21 -69 -40 -91 -82 -96 -28 -4 -32 -2
-32 19 0 19 -4 22 -22 18 -13 -4 -34 -14 -48 -23 -39 -26 -70 -31 -71 -12 -1
10 -2 24 -3 32 0 8 -12 16 -27 18 -18 2 -29 -4 -39 -23 -28 -52 -59 -20 -56
58 1 37 -4 56 -20 78 -12 17 -25 51 -30 77 -4 26 -8 49 -9 52 -2 9 -25 144
-28 169 -6 40 11 110 34 142 36 51 238 137 354 151 39 5 74 2 123 -11z m143
-717 c7 -9 13 -40 13 -70 1 -60 -11 -76 -54 -72 -24 3 -25 6 -28 81 l-3 77 29
0 c16 0 35 -7 43 -16z"/>
<path d="M904 1070 c-57 -26 -91 -67 -99 -121 -6 -39 -3 -50 17 -73 61 -70
234 -4 252 98 7 36 -12 84 -38 98 -33 18 -90 17 -132 -2z"/>
<path d="M639 989 c-26 -26 -18 -54 27 -96 60 -58 128 -36 99 32 -15 36 -40
60 -78 74 -23 9 -31 7 -48 -10z"/>
<path d="M747 813 c-2 -5 -2 -14 -1 -20 1 -7 2 -17 3 -22 1 -8 39 -7 46 1 2 2
-1 13 -6 26 -8 21 -34 30 -42 15z"/>
</g>
</svg>
